PathFileType	4	(X/Y/Z)	Run_400 01
DataRate	CameraRate	NumFrames	NumMarkers	Units	OrigDataRate	OrigDataStartFrame	OrigNumFrames
120	120	7	42	mm	120	609	128
Frame#	Time	LASI			RASI			LPSI			RPSI			RTH1			RTH2			RTH3			LTH1			LTH2			LTH3			RTB1			RTB2			RTB3			LTB1			LTB2			LTB3			RCAL			RTOE			RMT5			LCAL			LTOE			LMT5			LACR			RACR			CLAV			C7			RUA1			RUA2			RUA3			RLEL			RMEL			LUA1			LUA2			LUA3			LLEL			LMEL			RFAsuperior			RFAradius			RFAulna			LFAsuperior			LFAradius			LFAulna		
		X1	Y1	Z1	X2	Y2	Z2	X3	Y3	Z3	X4	Y4	Z4	X5	Y5	Z5	X6	Y6	Z6	X7	Y7	Z7	X8	Y8	Z8	X9	Y9	Z9	X10	Y10	Z10	X11	Y11	Z11	X12	Y12	Z12	X13	Y13	Z13	X14	Y14	Z14	X15	Y15	Z15	X16	Y16	Z16	X17	Y17	Z17	X18	Y18	Z18	X19	Y19	Z19	X20	Y20	Z20	X21	Y21	Z21	X22	Y22	Z22	X23	Y23	Z23	X24	Y24	Z24	X25	Y25	Z25	X26	Y26	Z26	X27	Y27	Z27	X28	Y28	Z28	X29	Y29	Z29	X30	Y30	Z30	X31	Y31	Z31	X32	Y32	Z32	X33	Y33	Z33	X34	Y34	Z34	X35	Y35	Z35	X36	Y36	Z36	X37	Y37	Z37	X38	Y38	Z38	X39	Y39	Z39	X40	Y40	Z40	X41	Y41	Z41	X42	Y42	Z42	

609	  5.075000	729.539086	983.819866	-510.525326	751.941805	990.690643	-252.247191	568.382381	1007.362382	-400.813413	575.314249	1008.204198	-316.937452	767.373867	820.994166	-205.549905	884.171766	746.628191	-232.476262	874.748411	617.867779	-205.528154	674.747247	838.762026	-541.579905	725.587352	723.430446	-530.378445	650.908021	586.411754	-510.518543	810.257317	473.308568	-268.082392	740.264747	501.811635	-214.300109	633.506676	467.650068	-283.336696	647.934415	347.221933	-422.929035	559.777175	267.112595	-460.792490	539.856588	194.496980	-380.597582	484.471639	559.313766	-279.112615	492.890441	339.492097	-285.390938	469.065970	369.485340	-196.005195	375.409835	123.848797	-367.632010	586.072337	 70.625523	-372.467385	549.295772	 58.843041	-454.914108	744.279741	1421.040379	-578.509922	723.472460	1449.958642	-204.770634	832.106550	1394.781295	-354.819978	699.815164	1486.825430	-399.783597	671.381190	1363.734539	-132.658674	669.286470	1293.781151	-122.419256	568.627341	1308.085879	-102.914334	569.666786	1225.216346	-43.653696	525.961229	1208.323563	-117.179807	723.848778	1351.357227	-638.403977	678.420730	1270.508754	-630.325273	724.576285	1270.375665	-689.425740	730.053903	1176.479388	-753.986439	714.094620	1110.912288	-698.332100	631.368287	1163.197523	-47.564204	746.069387	1049.302053	-101.215209	686.973554	1014.410932	-92.782799	799.951596	1196.776725	-736.921691	940.694375	1211.772196	-627.515222	958.627238	1164.754755	-675.314323	
610	  5.083333	730.783501	985.736062	-512.528865	753.245152	997.420094	-255.056623	570.815486	1012.845251	-402.810260	577.467147	1014.394661	-318.511279	772.643046	831.363610	-206.874249	891.959610	762.043764	-234.642576	888.168906	632.091186	-208.730822	672.192795	842.504849	-542.032482	715.988528	725.838818	-530.183328	632.181644	592.362038	-509.936374	832.854351	479.101120	-271.809656	759.967299	502.177064	-217.595370	656.444272	458.397782	-286.844937	620.343031	351.860270	-424.435041	530.369296	274.394141	-462.697824	510.354120	200.472074	-383.063668	499.109659	534.908644	-282.206372	530.448894	317.052403	-288.768547	503.497032	344.718641	-198.823294	345.843824	132.769705	-370.689217	554.064359	 71.392986	-373.480511	515.979989	 59.090167	-454.807652	748.720908	1428.497233	-577.575530	719.382892	1456.172574	-205.125556	831.339712	1401.906785	-352.149706	700.136732	1492.723713	-399.511844	665.133649	1372.325744	-133.060283	662.133412	1302.641864	-121.618382	561.067129	1318.141099	-105.044619	559.018962	1236.340909	-44.822527	517.905128	1218.940083	-119.731068	730.440008	1357.928502	-637.440566	683.543796	1277.608055	-630.701842	733.017686	1276.146270	-687.214652	739.084295	1181.182275	-749.980673	719.768806	1116.630938	-693.316099	620.512955	1174.430123	-45.386239	736.421608	1059.639758	-92.860727	676.969798	1024.768693	-88.526533	807.861027	1202.013990	-730.402972	944.723049	1219.790675	-617.288585	963.968843	1171.563801	-663.112084	
611	  5.091667	732.583723	988.382025	-514.389828	754.680659	1004.742687	-258.039761	573.192988	1018.886735	-404.835384	580.171897	1020.961919	-319.869199	777.871848	842.033402	-208.443954	898.693354	777.257817	-236.466111	899.634253	645.399161	-211.950812	670.448161	846.663349	-542.496223	706.728030	728.834289	-529.921538	614.164591	600.059180	-509.191772	854.601472	484.950937	-275.351506	779.154209	501.761128	-220.997977	679.569153	448.002362	-289.456952	593.622787	358.536495	-426.014155	502.039230	283.743083	-465.003243	482.305177	208.180535	-386.368367	515.694701	508.684116	-286.847930	569.660707	295.247109	-291.923111	539.890457	321.031069	-201.543321	318.064061	143.713240	-374.417642	522.715587	 72.316620	-374.420069	482.972602	 59.589074	-454.546871	752.861679	1436.622872	-576.223732	715.607951	1462.516129	-205.345950	830.386056	1409.533408	-349.522410	700.310608	1498.982893	-398.783302	659.319271	1381.076235	-133.481534	655.416389	1311.593134	-121.181933	554.095050	1328.498379	-107.016751	549.217451	1247.814979	-46.113894	510.211988	1229.720377	-122.007201	736.402631	1365.455958	-636.296359	688.286714	1285.781792	-631.061584	740.567568	1283.062689	-685.119303	746.877897	1187.479589	-746.416710	723.778524	1123.566901	-689.441051	610.452283	1186.190873	-43.751418	727.118765	1070.496134	-85.648975	667.627870	1035.598805	-84.131395	814.571511	1208.417040	-724.245796	947.146553	1227.970996	-607.048884	967.371277	1178.471953	-650.511545	
612	  5.100000	734.758884	991.993047	-515.872441	756.115838	1012.390257	-261.290035	575.536005	1025.323405	-406.941761	582.951284	1027.838358	-321.245903	782.926299	852.717471	-210.178127	904.330601	791.477098	-238.240283	909.025067	657.567063	-215.162627	668.590576	851.071236	-542.973170	697.963574	732.455671	-529.855857	597.453535	609.128011	-508.447960	875.106145	490.792878	-278.674800	797.781699	500.354037	-224.567936	703.386491	436.392986	-291.415386	568.380605	367.251505	-427.874149	475.265694	295.017140	-467.884458	456.135527	217.361930	-390.685758	534.501599	480.975565	-292.737256	610.443665	274.298746	-294.632738	577.843908	298.390380	-204.413639	292.430817	156.398967	-378.939662	492.129550	 73.289634	-375.299836	450.283000	 60.128349	-454.345028	756.616006	1445.113762	-574.564949	712.124541	1468.913586	-205.482253	829.175455	1417.404923	-347.021006	700.387117	1505.470544	-397.770998	653.973708	1389.809995	-133.939538	649.159914	1320.530015	-121.110892	547.665234	1338.905272	-108.868139	540.182476	1259.298664	-47.520307	502.836683	1240.431602	-124.110806	741.635054	1373.633216	-634.997154	692.493863	1294.769728	-631.480490	747.181916	1290.788595	-683.256600	753.418690	1194.908272	-743.412828	726.369011	1131.413874	-686.628204	601.079655	1198.042632	-42.590960	718.229147	1081.416060	-79.628472	658.858027	1046.465621	-79.526724	820.097640	1215.632759	-718.780448	948.136145	1236.026353	-597.182309	969.057550	1185.267820	-638.002897	
613	  5.108333	737.136986	996.415654	-516.953787	757.447898	1020.169159	-264.645261	577.965593	1031.936865	-409.068859	585.556545	1034.945192	-322.803573	787.719664	863.179192	-211.958884	908.906158	804.061874	-239.997926	916.229351	668.476691	-218.441487	666.053270	855.742825	-543.481692	689.772949	736.650748	-529.998218	582.340960	619.171966	-507.796648	894.038418	496.348629	-281.807509	815.797684	497.842853	-228.256613	728.091901	424.002239	-293.441242	545.335817	377.655687	-430.305813	450.560688	307.792437	-471.412122	432.304179	227.637471	-395.898721	555.649550	452.102109	-299.430842	652.653795	254.420824	-296.935597	617.005267	276.643457	-207.594167	269.320127	170.727233	-384.354398	462.449934	 74.403465	-376.370513	418.037998	 60.624831	-454.603903	759.999501	1453.710872	-572.708438	708.899266	1475.273331	-205.544813	827.726551	1425.208832	-344.633128	700.416669	1511.997348	-396.618900	649.139910	1398.360378	-134.412125	643.447359	1329.321303	-121.185449	541.762853	1349.123237	-110.615616	531.890466	1270.519859	-48.996716	495.766009	1250.918829	-126.110161	746.191043	1382.200067	-633.589850	696.057566	1304.291767	-632.050205	752.933931	1299.039377	-681.690255	758.823335	1203.005265	-741.005672	727.785093	1139.890828	-684.816929	592.401819	1209.656598	-41.757269	709.849919	1092.070381	-74.616403	650.640194	1057.019973	-74.732425	824.554981	1223.280909	-714.070405	947.846421	1243.749318	-587.934836	969.226486	1191.804499	-626.073872	
614	  5.116667	739.594153	1001.243289	-517.688936	758.688334	1027.980301	-267.705552	580.514679	1038.514689	-411.053873	588.025987	1042.087413	-324.550543	792.191358	873.204283	-213.730183	912.480900	814.721263	-241.502129	921.171379	677.999353	-221.955645	662.881729	860.790246	-544.052224	682.116095	741.267547	-530.131492	568.836586	629.829403	-507.321440	911.272714	501.234175	-284.827512	833.176930	494.236300	-231.942158	753.479912	411.524038	-296.241656	525.130120	389.045747	-433.371656	428.497337	321.353177	-475.429220	411.147334	238.596714	-401.541359	579.068583	422.408468	-306.444636	696.053481	235.934116	-299.101515	657.170308	255.757490	-211.061582	249.050615	186.850232	-390.523915	433.736491	 75.971114	-378.058340	386.547673	 61.443638	-455.750960	763.103467	1462.195799	-570.720789	705.915547	1481.462974	-205.541963	826.157332	1432.617398	-342.303369	700.426778	1518.348383	-395.417818	644.851758	1406.583073	-134.860903	638.367973	1337.809162	-121.125819	536.418085	1358.955327	-112.267670	524.386194	1281.290929	-50.479429	489.076389	1261.070240	-128.027013	750.224337	1390.956096	-632.134380	698.980691	1314.111045	-632.822534	757.922124	1307.558025	-680.352094	763.244136	1211.394520	-739.118201	728.257096	1148.758831	-683.975677	584.501520	1220.800646	-41.106865	702.115016	1102.252843	-70.281476	643.029690	1067.047117	-69.826085	828.084488	1231.031836	-709.976167	946.413337	1250.993561	-579.375134	968.027876	1197.973536	-615.042222	
615	  5.125000	742.054406	1006.091305	-518.046645	759.930393	1035.715533	-270.100979	583.054261	1044.915100	-412.718022	590.474375	1049.029001	-326.316218	796.239204	882.515317	-215.512479	915.073557	823.448263	-242.453841	923.901878	685.932627	-225.858641	659.585332	866.275251	-544.705388	674.941414	746.167016	-530.109517	556.919714	640.642925	-507.169164	926.855006	505.107503	-287.842587	849.916047	489.645883	-235.497344	779.127634	399.458142	-300.030835	508.096865	400.467328	-436.756831	409.549947	334.809589	-479.557200	392.603314	249.887278	-406.928119	604.503907	392.275672	-313.339153	740.312395	219.269245	-301.479832	698.266729	235.931700	-214.679716	231.686533	204.988544	-397.003452	405.801692	 78.495165	-380.636363	356.067980	 63.448219	-457.935326	766.046774	1470.365634	-568.639525	703.182744	1487.297698	-205.560259	824.637738	1439.372211	-340.020458	700.438469	1524.328978	-394.251464	641.117956	1414.357009	-135.270287	633.941340	1345.838968	-120.817600	531.698545	1368.243833	-113.829956	517.728987	1291.479481	-51.920183	482.912185	1270.771945	-129.857179	753.906717	1399.726068	-630.687161	701.353220	1324.060732	-633.801787	762.215903	1316.085272	-679.062958	766.797596	1219.814399	-737.603638	727.960845	1157.814603	-684.041923	577.456344	1231.312280	-40.557413	695.162327	1111.862579	-66.309628	636.126093	1076.475508	-64.911065	830.782922	1238.656452	-706.310741	943.967986	1257.668503	-571.478456	965.592076	1203.677645	-605.011497	
